<?xml version="1.0" encoding="UTF-8"?>
<svg xmlns="http://www.w3.org/2000/svg" xmlns:xlink="http://www.w3.org/1999/xlink" width="2731pt" height="2570pt" viewBox="0 0 2731 2570" version="1.1">
<g id="surface1">
<path style=" stroke:none;fill-rule:nonzero;fill:rgb(100%,100%,100%);fill-opacity:1;" d="M 1241 16.699219 C 1146.101562 21.699219 1066.398438 33.800781 971 57.601562 C 735.5 116.199219 547.601562 218.300781 396.5 369.5 C 319.300781 446.800781 255.601562 531.898438 199.101562 633 C 186.800781 654.898438 156.699219 715.5 145.699219 740.398438 C 99.5 844.601562 62.699219 958.601562 42.5 1060.5 C 31.800781 1114.5 25.398438 1162.199219 20.800781 1223.5 C 18.800781 1250.5 19.101562 1345.699219 21.300781 1374 C 38.199219 1588.5 105.699219 1786.300781 220.5 1958 C 271.800781 2034.699219 325 2097.800781 399 2169.398438 C 485.699219 2253.398438 580.898438 2324.699219 679.898438 2379.898438 C 833.601562 2465.699219 1001.199219 2516.300781 1181.5 2531.5 C 1218.699219 2534.601562 1232.800781 2535.199219 1283 2535.699219 C 1335.5 2536.300781 1363.101562 2535.5 1396 2532.398438 C 1543.601562 2518.898438 1684.199219 2472.800781 1827.398438 2390.800781 C 1878.398438 2361.601562 1929.398438 2329.101562 2016 2270.5 C 2039.398438 2254.699219 2079.199219 2228 2104.5 2211.199219 C 2143.601562 2185.101562 2151.800781 2179.300781 2159.101562 2172 C 2168.898438 2162.300781 2174 2153.300781 2176 2142 C 2178.898438 2126 2172.898438 2105.800781 2162.101562 2095 C 2144.101562 2077 2108.300781 2076.398438 2050.5 2093.101562 C 1999.300781 2107.898438 1956.699219 2128.898438 1851 2191.5 C 1808.398438 2216.800781 1790.398438 2227.101562 1767.5 2239.300781 C 1642.300781 2305.898438 1537.199219 2318.101562 1441.199219 2276.898438 C 1417.601562 2266.800781 1382 2245.300781 1378 2238.800781 C 1374.398438 2232.898438 1376.300781 2225 1382.300781 2220.601562 C 1386.5 2217.5 1392.5 2218.101562 1420.5 2224.398438 C 1448.300781 2230.699219 1459.101562 2233.601562 1482.398438 2241 C 1534 2257.199219 1579.800781 2261.398438 1625.699219 2254 C 1704.101562 2241.300781 1759.800781 2204.101562 1789.601562 2144.5 C 1798.398438 2127 1798 2118.601562 1788.398438 2114 C 1785.199219 2112.398438 1780.101562 2111.699219 1764.398438 2110.5 C 1673.199219 2103.699219 1592.898438 2087 1457.5 2046.699219 C 1408.898438 2032.199219 1390.101562 2027.601562 1358.898438 2022.601562 C 1326.300781 2017.300781 1316 2016.5 1276 2016.5 C 1235.800781 2016.5 1224.699219 2017.398438 1196 2022.601562 C 1117.601562 2036.898438 1045.398438 2072.601562 980.5 2129 C 975 2133.800781 958.300781 2148.898438 943.5 2162.601562 C 895.699219 2206.699219 890 2211.5 877.601562 2217.699219 C 858 2227.601562 835.699219 2227.5 811.199219 2217.398438 C 773.898438 2202.101562 737.101562 2174.199219 698.699219 2132.101562 C 446.398438 1855.5 324.101562 1568.199219 324 1252 C 324 1053.800781 373.5 840.898438 457.699219 678 C 508.101562 580.300781 567.398438 498.699219 643 422.898438 C 695.101562 370.601562 745.800781 329.199219 810 286.5 C 1021.398438 145.800781 1262.398438 91.601562 1529.5 124.601562 C 1723.101562 148.5 1912 225.800781 2062 342.601562 C 2100.601562 372.699219 2128.101562 397 2165.601562 434.5 C 2225.398438 494.199219 2274.5 554.398438 2323.699219 628.101562 C 2355.5 675.699219 2371.898438 703.800781 2427.300781 806 C 2467.898438 881 2464.300781 874.699219 2465.300781 871.300781 C 2467.101562 865.101562 2464.601562 856.300781 2450.300781 818 C 2413.300781 719.101562 2364.601562 624.800781 2307.699219 542 C 2196.199219 379.5 2038.800781 241.5 1862.5 151.398438 C 1705.5 71.199219 1535.898438 27.398438 1341.5 17 C 1324.699219 16.101562 1255.699219 15.898438 1241 16.699219 Z M 1241 16.699219 "/>
<path style=" stroke:none;fill-rule:nonzero;fill:rgb(100%,100%,100%);fill-opacity:1;" d="M 1513 433.601562 C 1448.898438 438.101562 1387.199219 458.800781 1335.5 493.300781 C 1299.5 517.300781 1266.601562 548.898438 1237.800781 587.101562 C 1216.398438 615.300781 1184 668.199219 1184 674.800781 C 1184 677.101562 1186.300781 677.699219 1188.699219 676.199219 C 1189.398438 675.800781 1196.101562 665.800781 1203.699219 654 C 1227.898438 616.300781 1242.199219 598.601562 1266.398438 576.101562 C 1294 550.5 1330.898438 527.5 1363.300781 515.601562 C 1404.800781 500.398438 1448.898438 496.699219 1490.5 505.101562 C 1515.300781 510.101562 1546.800781 523.5 1569.699219 538.898438 C 1586.898438 550.5 1596.800781 558.601562 1612.601562 574.398438 C 1659.199219 621.101562 1693.101562 681.699219 1711 750.5 C 1718 777.300781 1721.5 797.5 1724.898438 830.800781 C 1727.101562 852.699219 1728.800781 857.898438 1734.898438 861.398438 C 1738.199219 863.300781 1740.800781 863.300781 1803.398438 863.300781 C 1877 863.300781 1873.398438 863.699219 1877.101562 855.699219 C 1878.699219 852 1879 849 1879 831.5 C 1879.101562 685.699219 1817.398438 558.5 1712.5 488.398438 C 1669.398438 459.601562 1622 442 1570 435.5 C 1557.699219 434 1523.898438 432.800781 1513 433.601562 Z M 1513 433.601562 "/>
<path style=" stroke:none;fill-rule:nonzero;fill:rgb(100%,100%,100%);fill-opacity:1;" d="M 780.5 686 C 697.601562 692.101562 626 729.101562 571.398438 794 C 533.5 839.101562 506.5 886.300781 489.398438 937.5 C 475.199219 980.199219 469.199219 1016.101562 468.300781 1064 C 467.398438 1111.101562 471.398438 1148.101562 482.601562 1196.5 C 517.300781 1346.5 604.101562 1484.199219 755.5 1629.398438 C 813.398438 1684.898438 855.101562 1721.300781 978 1823.199219 C 1012.898438 1852.101562 1054.699219 1886.898438 1070.699219 1900.300781 C 1086.800781 1913.800781 1100.5 1925.199219 1101.199219 1925.601562 C 1101.898438 1926 1098 1921.601562 1092.398438 1915.898438 C 1083.300781 1906.398438 1052 1873.800781 991 1810 C 812.300781 1623.101562 729.601562 1518.300781 675.699219 1410.5 C 627.398438 1313.601562 602.199219 1204.300781 606.101562 1108.800781 C 607.5 1075.300781 611.300781 1048.199219 619.199219 1016.5 C 642.300781 923.5 700.398438 832.601562 764.5 789.101562 C 796.5 767.398438 829.898438 755 867.800781 751 C 884.199219 749.199219 919.199219 750.199219 934.300781 752.898438 C 956.300781 756.800781 978.800781 763.601562 1010.800781 776 L 1023.5 780.898438 L 1013.5 771.199219 C 970.800781 729.5 911.199219 699.5 851 689.601562 C 829 686 800.300781 684.5 780.5 686 Z M 780.5 686 "/>
<path style=" stroke:none;fill-rule:nonzero;fill:rgb(100%,100%,100%);fill-opacity:1;" d="M 1523 885.101562 C 1487.199219 889.800781 1447.398438 921.199219 1426.5 961.300781 C 1421.199219 971.300781 1417.199219 980.898438 1414.398438 989.699219 L 1413.101562 994 L 1836.300781 994 L 1835.601562 974.5 C 1834.398438 938.398438 1829.199219 921.699219 1814.398438 906.101562 C 1807.398438 898.601562 1800.101562 893.898438 1790.199219 890.300781 C 1774.199219 884.398438 1780 884.699219 1649.5 884.398438 C 1583.5 884.300781 1526.601562 884.601562 1523 885.101562 Z M 1523 885.101562 "/>
<path style=" stroke:none;fill-rule:nonzero;fill:rgb(100%,100%,100%);fill-opacity:1;" d="M 849.699219 940.300781 C 841.601562 969.5 834.898438 993.800781 835 994.300781 C 835 994.699219 949.199219 994.898438 1088.699219 994.800781 L 1342.398438 994.5 L 1356.601562 943.5 C 1364.5 915.398438 1371.199219 891.300781 1371.5 889.699219 L 1372.199219 887 L 1213.300781 887 L 1159.398438 929.199219 C 1129.800781 952.300781 1104.800781 971.5 1104 971.601562 C 1103.101562 971.800781 1084.199219 954.300781 1058.5 929.5 L 1014.5 887.101562 L 939.5 887.101562 L 864.5 887 Z M 849.699219 940.300781 "/>
<path style=" stroke:none;fill-rule:nonzero;fill:rgb(100%,100%,100%);fill-opacity:1;" d="M 2406.398438 940.300781 L 2359.300781 993.5 L 2498.300781 993.800781 C 2574.800781 993.898438 2637.5 993.898438 2637.601562 993.699219 C 2637.800781 993.5 2632.601562 969.601562 2626.199219 940.5 L 2614.5 887.5 L 2453.5 887.101562 Z M 2406.398438 940.300781 "/>
<path style=" stroke:none;fill-rule:nonzero;fill:rgb(100%,100%,100%);fill-opacity:1;" d="M 1930.5 889.199219 C 1930.300781 889.898438 1923.398438 913.398438 1915.199219 941.5 L 1900.199219 992.5 L 1975.800781 992.800781 C 2017.398438 992.898438 2051.699219 992.699219 2052.101562 992.300781 C 2052.601562 991.601562 2079.398438 899.300781 2081.5 890.699219 L 2082.199219 888 L 2006.601562 888 C 1947 888 1930.800781 888.300781 1930.5 889.199219 Z M 1930.5 889.199219 "/>
<path style=" stroke:none;fill-rule:nonzero;fill:rgb(100%,100%,100%);fill-opacity:1;" d="M 2153 933.699219 C 2128 958.898438 2104.601562 982.5 2101 986.199219 L 2094.601562 993 L 2279.5 993 L 2321 950.300781 C 2343.800781 926.898438 2366.699219 903.199219 2371.898438 897.800781 L 2381.199219 888 L 2198.5 888 Z M 2153 933.699219 "/>
<path style=" stroke:none;fill-rule:nonzero;fill:rgb(100%,100%,100%);fill-opacity:1;" d="M 1729 1037 L 1680.5 1037.5 L 1657.398438 1116 C 1644.601562 1159.199219 1633.699219 1196.101562 1633 1198 C 1628.800781 1210 1621.199219 1220.300781 1613.898438 1224 C 1610.300781 1225.898438 1607.699219 1226 1561.898438 1226 C 1515.398438 1226 1513.601562 1225.898438 1510.5 1224 C 1504.398438 1220.199219 1502.5 1211.300781 1505.101562 1198.800781 C 1505.699219 1195.898438 1516.101562 1158.699219 1528.101562 1116.300781 C 1540.101562 1073.800781 1550 1038.800781 1550 1038.5 C 1550 1038.199219 1516.5 1038 1475.5 1038 C 1434.5 1038 1401 1038.300781 1401 1038.601562 C 1401 1038.898438 1393.199219 1068.300781 1383.601562 1103.800781 C 1374 1139.398438 1365.199219 1173.199219 1364.101562 1179 C 1359 1205.800781 1358.699219 1233.5 1363.398438 1251.398438 C 1374.699219 1295 1410.5 1320.5 1471 1328.199219 C 1478.699219 1329.101562 1497.199219 1329.5 1540 1329.5 C 1591.199219 1329.5 1600.199219 1329.300781 1612 1327.699219 C 1684.398438 1317.800781 1738.800781 1278.800781 1770.898438 1213.898438 C 1780.601562 1194.398438 1784.101562 1184 1802 1122 C 1810.699219 1091.5 1819.800781 1060.300781 1822 1052.699219 C 1824.199219 1045.101562 1826 1038.199219 1826 1037.398438 C 1826 1035.898438 1831.398438 1035.898438 1729 1037 Z M 1729 1037 "/>
<path style=" stroke:none;fill-rule:nonzero;fill:rgb(100%,100%,100%);fill-opacity:1;" d="M 783 1182.199219 C 760.800781 1262.101562 742.5 1328.101562 742.199219 1328.699219 C 741.898438 1329.699219 757 1330 815.699219 1330 L 889.601562 1330 L 926.5 1199.199219 C 946.699219 1127.300781 963.601562 1067.898438 963.898438 1067.300781 C 964.300781 1066.5 981.601562 1082.601562 1009.5 1109.898438 L 1054.398438 1153.699219 L 1066.898438 1143.5 C 1115.300781 1104.199219 1162.5 1066.101562 1162.699219 1066.300781 C 1162.800781 1066.5 1146.5 1125.699219 1126.5 1198 C 1106.398438 1270.300781 1090 1329.601562 1090 1329.800781 C 1090 1329.898438 1125.800781 1329.898438 1169.601562 1329.800781 L 1249.300781 1329.5 L 1289.101562 1188.5 C 1311 1110.898438 1329.5 1045.101562 1330.398438 1042.199219 L 1331.898438 1037 L 823.300781 1037 Z M 783 1182.199219 "/>
<path style=" stroke:none;fill-rule:nonzero;fill:rgb(100%,100%,100%);fill-opacity:1;" d="M 1846.5 1182.199219 C 1823.5 1262.101562 1804.398438 1328.101562 1804.199219 1328.699219 C 1803.898438 1329.699219 1819.699219 1330 1881.199219 1330 L 1958.601562 1330 L 1984 1241.199219 C 1997.898438 1192.398438 2009.601562 1152.199219 2009.898438 1151.800781 C 2010.300781 1151.398438 2030.800781 1191.199219 2055.699219 1240.300781 L 2100.800781 1329.5 L 2180.398438 1329.800781 C 2224.199219 1329.898438 2260 1329.898438 2260 1329.800781 C 2260 1329.601562 2236.398438 1283.398438 2207.5 1227.101562 C 2178.601562 1170.800781 2155 1124.199219 2155 1123.601562 C 2155 1123 2171.199219 1106.300781 2191.101562 1086.5 C 2210.898438 1066.699219 2229.800781 1047.5 2233.199219 1043.699219 L 2239.199219 1037 L 1888.398438 1037 Z M 1846.5 1182.199219 "/>
<path style=" stroke:none;fill-rule:nonzero;fill:rgb(100%,100%,100%);fill-opacity:1;" d="M 2318.699219 1055.699219 C 2309.699219 1066.101562 2288 1090.898438 2270.601562 1111 L 2238.800781 1147.5 L 2370.699219 1147.800781 L 2502.601562 1148 L 2525.199219 1239.101562 C 2537.699219 1289.199219 2548 1330.300781 2548.199219 1330.5 C 2548.398438 1330.601562 2584.5 1330.398438 2628.5 1330.101562 L 2708.601562 1329.5 L 2677.800781 1183.5 C 2660.898438 1103.199219 2647.101562 1037.398438 2647 1037.199219 C 2647 1037.101562 2576.800781 1037 2491 1037 L 2335.101562 1037 Z M 2318.699219 1055.699219 "/>
<path style=" stroke:none;fill-rule:nonzero;fill:rgb(100%,100%,100%);fill-opacity:1;" d="M 1599.5 1568 C 1588.199219 1569 1579.800781 1571.398438 1570 1576.199219 C 1563 1579.601562 1559.898438 1582 1552 1589.898438 C 1544.300781 1597.601562 1541.300781 1601.699219 1536.199219 1610.699219 C 1528.300781 1624.699219 1524 1630.601562 1511.398438 1644.5 C 1505.898438 1650.5 1495 1663.101562 1487 1672.5 C 1433.398438 1735.800781 1394.199219 1778.601562 1282.601562 1895.5 C 1231 1949.5 1226.601562 1954.199219 1230 1951.398438 C 1397.300781 1813.5 1488.898438 1732.699219 1575.398438 1647.101562 C 1622.199219 1600.699219 1648.601562 1572.898438 1646.800781 1571.898438 C 1644.898438 1570.898438 1625.398438 1568.199219 1615.5 1567.699219 C 1611.101562 1567.398438 1603.898438 1567.601562 1599.5 1568 Z M 1599.5 1568 "/>
</g>
</svg>
