<?xml version="1.0" standalone="no"?>
<!DOCTYPE svg PUBLIC "-//W3C//DTD SVG 20010904//EN"
 "http://www.w3.org/TR/2001/REC-SVG-20010904/DTD/svg10.dtd">
<svg version="1.0" xmlns="http://www.w3.org/2000/svg"
 width="2731.000000pt" height="2570.000000pt" viewBox="0 0 2731.000000 2570.000000"
 preserveAspectRatio="xMidYMid meet">

<g transform="translate(0.000000,2570.000000) scale(0.100000,-0.100000)"
fill="#000000" stroke="none">
<path d="M12410 25533 c-949 -50 -1746 -171 -2700 -409 -2355 -586 -4234
-1607 -5745 -3119 -772 -773 -1409 -1624 -1974 -2635 -123 -219 -424 -825
-534 -1074 -462 -1042 -830 -2182 -1032 -3201 -107 -540 -171 -1017 -217
-1630 -20 -270 -17 -1222 5 -1505 169 -2145 844 -4123 1992 -5840 513 -767
1045 -1398 1785 -2114 867 -840 1819 -1553 2809 -2105 1537 -858 3213 -1364
5016 -1516 372 -31 513 -37 1015 -42 525 -6 801 2 1130 33 1476 135 2882 596
4314 1416 510 292 1020 617 1886 1203 234 158 632 425 885 593 391 261 473
319 546 392 98 97 149 187 169 300 29 160 -31 362 -139 470 -180 180 -538 186
-1116 19 -512 -148 -938 -358 -1995 -984 -426 -253 -606 -356 -835 -478 -1252
-666 -2303 -788 -3263 -376 -236 101 -592 316 -632 381 -36 59 -17 138 43 182
42 31 102 25 382 -38 278 -63 386 -92 619 -166 516 -162 974 -204 1433 -130
784 127 1341 499 1639 1095 88 175 84 259 -12 305 -32 16 -83 23 -240 35 -912
68 -1715 235 -3069 638 -486 145 -674 191 -986 241 -326 53 -429 61 -829 61
-402 0 -513 -9 -800 -61 -784 -143 -1506 -500 -2155 -1064 -55 -48 -222 -199
-370 -336 -478 -441 -535 -489 -659 -551 -196 -99 -419 -98 -664 3 -373 153
-741 432 -1125 853 -2523 2766 -3746 5639 -3747 8801 0 1982 495 4111 1337
5740 504 977 1097 1793 1853 2551 521 523 1028 937 1670 1364 2114 1407 4524
1949 7195 1619 1936 -239 3825 -1012 5325 -2180 386 -301 661 -544 1036 -919
598 -597 1089 -1199 1581 -1936 318 -476 482 -757 1036 -1779 406 -750 370
-687 380 -653 18 62 -7 150 -150 533 -370 989 -857 1932 -1426 2760 -1115
1625 -2689 3005 -4452 3906 -1570 802 -3266 1240 -5210 1344 -168 9 -858 11
-1005 3z"/>
<path d="M15130 21364 c-641 -45 -1258 -252 -1775 -597 -360 -240 -689 -556
-977 -938 -214 -282 -538 -811 -538 -877 0 -23 23 -29 47 -14 7 4 74 104 150
222 242 377 385 554 627 779 276 256 645 486 969 605 415 152 856 189 1272
105 248 -50 563 -184 792 -338 172 -116 271 -197 429 -355 466 -467 805 -1073
984 -1761 70 -268 105 -470 139 -803 22 -219 39 -271 100 -306 33 -19 59 -19
685 -19 736 0 700 -4 737 76 16 37 19 67 19 242 1 1458 -616 2730 -1665 3431
-431 288 -905 464 -1425 529 -123 15 -461 27 -570 19z"/>
<path d="M7805 18840 c-829 -61 -1545 -431 -2091 -1080 -379 -451 -649 -923
-820 -1435 -142 -427 -202 -786 -211 -1265 -9 -471 31 -841 143 -1325 347
-1500 1215 -2877 2729 -4329 579 -555 996 -919 2225 -1938 349 -289 767 -637
927 -771 161 -135 298 -249 305 -253 7 -4 -32 40 -88 97 -91 95 -404 421
-1014 1059 -1787 1869 -2614 2917 -3153 3995 -483 969 -735 2062 -696 3017 14
335 52 606 131 923 231 930 812 1839 1453 2274 320 217 654 341 1033 381 164
18 514 8 665 -19 220 -39 445 -107 765 -231 l127 -49 -100 97 c-427 417 -1023
717 -1625 816 -220 36 -507 51 -705 36z"/>
<path d="M15230 16849 c-358 -47 -756 -361 -965 -762 -53 -100 -93 -196 -121
-284 l-13 -43 2116 0 2116 0 -7 195 c-12 361 -64 528 -212 684 -70 75 -143
122 -242 158 -160 59 -102 56 -1407 59 -660 1 -1229 -2 -1265 -7z"/>
<path d="M8497 16297 c-81 -292 -148 -535 -147 -540 0 -4 1142 -6 2537 -5
l2537 3 142 510 c79 281 146 522 149 538 l7 27 -795 0 -794 0 -539 -422 c-296
-231 -546 -423 -554 -424 -9 -2 -198 173 -455 421 l-440 424 -750 0 -750 1
-148 -533z"/>
<path d="M24064 16297 l-471 -532 1390 -3 c765 -1 1392 -1 1393 1 2 2 -50 241
-114 532 l-117 530 -805 2 -805 2 -471 -532z"/>
<path d="M19305 16808 c-2 -7 -71 -242 -153 -523 l-150 -510 756 -3 c416 -1
759 1 763 5 5 7 273 930 294 1016 l7 27 -756 0 c-596 0 -758 -3 -761 -12z"/>
<path d="M21530 16363 c-250 -252 -484 -488 -520 -525 l-64 -68 924 0 925 0
415 427 c228 234 457 471 509 525 l93 98 -914 0 -913 0 -455 -457z"/>
<path d="M17290 15330 l-485 -5 -231 -785 c-128 -432 -237 -801 -244 -820 -42
-120 -118 -223 -191 -260 -36 -19 -62 -20 -520 -20 -465 0 -483 1 -514 20 -61
38 -80 127 -54 252 6 29 110 401 230 825 120 425 219 775 219 778 0 3 -335 5
-745 5 -410 0 -745 -3 -745 -6 0 -3 -78 -297 -174 -652 -96 -356 -184 -694
-195 -752 -51 -268 -54 -545 -7 -724 113 -436 471 -691 1076 -768 77 -9 262
-13 690 -13 512 0 602 2 720 18 724 99 1268 489 1589 1138 97 195 132 299 311
919 87 305 178 617 200 693 22 76 40 145 40 153 0 15 54 15 -970 4z"/>
<path d="M7830 13878 c-222 -799 -405 -1459 -408 -1465 -3 -10 148 -13 735
-13 l739 0 369 1308 c202 719 371 1313 374 1319 4 8 177 -153 456 -426 l449
-438 125 102 c484 393 956 774 958 772 1 -2 -162 -594 -362 -1317 -201 -723
-365 -1316 -365 -1318 0 -1 358 -1 796 0 l797 3 398 1410 c219 776 404 1434
413 1463 l15 52 -2543 0 -2543 0 -403 -1452z"/>
<path d="M18465 13878 c-230 -799 -421 -1459 -423 -1465 -3 -10 155 -13 770
-13 l774 0 254 888 c139 488 256 890 259 894 4 4 209 -394 458 -885 l451 -892
796 -3 c438 -1 796 -1 796 0 0 2 -236 464 -525 1027 -289 563 -525 1029 -525
1035 0 6 162 173 361 371 198 198 387 390 421 428 l60 67 -1754 0 -1754 0
-419 -1452z"/>
<path d="M23187 15143 c-90 -104 -307 -352 -481 -553 l-318 -365 1319 -3 1319
-2 226 -911 c125 -501 228 -912 230 -914 2 -1 363 1 803 4 l801 6 -308 1460
c-169 803 -307 1461 -308 1463 0 1 -702 2 -1560 2 l-1559 0 -164 -187z"/>
<path d="M15995 10020 c-113 -10 -197 -34 -295 -82 -70 -34 -101 -58 -180
-137 -77 -77 -107 -118 -158 -208 -79 -140 -122 -199 -248 -338 -55 -60 -164
-186 -244 -280 -536 -633 -928 -1061 -2044 -2230 -516 -540 -560 -587 -526
-559 1673 1379 2589 2187 3454 3043 468 464 732 742 714 752 -19 10 -214 37
-313 42 -44 3 -116 1 -160 -3z"/>
</g>
</svg>
